<svg width="26" height="26" viewBox="0 0 26 26" fill="none" xmlns="http://www.w3.org/2000/svg">
<g clip-path="url(#clip0_2011_2)">
<path d="M7 22C9.20914 22 11 20.2091 11 18C11 15.7909 9.20914 14 7 14C4.79086 14 3 15.7909 3 18C3 20.2091 4.79086 22 7 22Z" stroke="#3139FB" stroke-linecap="round" stroke-linejoin="round"/>
<path d="M7 9C9.20914 9 11 7.20914 11 5C11 2.79086 9.20914 1 7 1C4.79086 1 3 2.79086 3 5C3 7.20914 4.79086 9 7 9Z" stroke="#3139FB" stroke-linecap="round" stroke-linejoin="round"/>
<path d="M19 22C21.2091 22 23 20.2091 23 18C23 15.7909 21.2091 14 19 14C16.7909 14 15 15.7909 15 18C15 20.2091 16.7909 22 19 22Z" stroke="#3139FB" stroke-linecap="round" stroke-linejoin="round"/>
<path d="M1 25C1.6986 24.0685 2.60448 23.3125 3.6459 22.7918C4.68731 22.2711 5.83566 22 7 22C8.16434 22 9.31269 22.2711 10.3541 22.7918C11.3955 23.3125 12.3014 24.0685 13 25C13.6986 24.0685 14.6045 23.3125 15.6459 22.7918C16.6873 22.2711 17.8357 22 19 22C20.1643 22 21.3127 22.2711 22.3541 22.7918C23.3955 23.3125 24.3014 24.0685 25 25" stroke="#3139FB" stroke-linecap="round" stroke-linejoin="round"/>
<path d="M19 9C21.2091 9 23 7.20914 23 5C23 2.79086 21.2091 1 19 1C16.7909 1 15 2.79086 15 5C15 7.20914 16.7909 9 19 9Z" stroke="#3139FB" stroke-linecap="round" stroke-linejoin="round"/>
<path d="M1 12C1.6986 11.0685 2.60448 10.3125 3.6459 9.7918C4.68731 9.27109 5.83566 9 7 9C8.16434 9 9.31269 9.27109 10.3541 9.7918C11.3955 10.3125 12.3014 11.0685 13 12C13.6986 11.0685 14.6045 10.3125 15.6459 9.7918C16.6873 9.27109 17.8357 9 19 9C20.1643 9 21.3127 9.27109 22.3541 9.7918C23.3955 10.3125 24.3014 11.0685 25 12" stroke="#3139FB" stroke-linecap="round" stroke-linejoin="round"/>
</g>
<defs>
<clipPath id="clip0_2011_2">
<rect width="26" height="26" fill="white"/>
</clipPath>
</defs>
</svg>
