<svg width="28" height="20" viewBox="0 0 28 20" fill="none" xmlns="http://www.w3.org/2000/svg">
<g clip-path="url(#clip0_2005_2)">
<path d="M1 18V2C1 1.73478 1.10536 1.48043 1.29289 1.29289C1.48043 1.10536 1.73478 1 2 1H26C26.2652 1 26.5196 1.10536 26.7071 1.29289C26.8946 1.48043 27 1.73478 27 2V18C27 18.2652 26.8946 18.5196 26.7071 18.7071C26.5196 18.8946 26.2652 19 26 19H18.4137C18.1489 18.9999 17.8949 18.8947 17.7075 18.7075L14.7075 15.7075C14.6146 15.6145 14.5043 15.5408 14.3829 15.4904C14.2615 15.4401 14.1314 15.4142 14 15.4142C13.8686 15.4142 13.7385 15.4401 13.6171 15.4904C13.4957 15.5408 13.3854 15.6145 13.2925 15.7075L10.2925 18.7075C10.1051 18.8947 9.85111 18.9999 9.58625 19H2C1.73478 19 1.48043 18.8946 1.29289 18.7071C1.10536 18.5196 1 18.2652 1 18Z" stroke="white" stroke-linecap="round" stroke-linejoin="round"/>
<path d="M8 13C9.65685 13 11 11.6569 11 10C11 8.34315 9.65685 7 8 7C6.34315 7 5 8.34315 5 10C5 11.6569 6.34315 13 8 13Z" stroke="white" stroke-linecap="round" stroke-linejoin="round"/>
<path d="M20 13C21.6569 13 23 11.6569 23 10C23 8.34315 21.6569 7 20 7C18.3431 7 17 8.34315 17 10C17 11.6569 18.3431 13 20 13Z" stroke="white" stroke-linecap="round" stroke-linejoin="round"/>
</g>
<defs>
<clipPath id="clip0_2005_2">
<rect width="28" height="20" fill="white"/>
</clipPath>
</defs>
</svg>
